<?xml version="1.0" encoding="utf-8"?>
<!-- Generator: Adobe Illustrator 21.1.0, SVG Export Plug-In . SVG Version: 6.00 Build 0)  -->
<svg version="1.1" xmlns="http://www.w3.org/2000/svg" xmlns:xlink="http://www.w3.org/1999/xlink" x="0px" y="0px"
	 viewBox="0 0 479.5 100" style="enable-background:new 0 0 479.5 100;" xml:space="preserve">
<style type="text/css">
	.st0{fill:#D1D3D4;}
	.st1{fill:#6D6E71;}
	.st2{fill:#333333;}
	.st3{fill:#DA1C5C;}
	.st4{opacity:0.5;fill:#FFFFFF;}
</style>
<g id="Layer_1">
	<title>board</title>
	<rect y="0" class="st0" width="479.5" height="100"/>
	<rect x="20.5" y="10" class="st1" width="80" height="80"/>
	<rect x="140.5" y="10" class="st1" width="80" height="80"/>
	<rect x="20.5" y="10" class="st2" width="80" height="80"/>
	<rect x="140.5" y="10" class="st2" width="80" height="80"/>
	<rect x="259.5" y="10" class="st2" width="80" height="80"/>
	<rect x="379.5" y="10" class="st2" width="80" height="80"/>
	<path class="st3" d="M62.8,53H43c-2.5,0-5-0.4-7.4-1.2c-2.2-0.8-4.2-2-5.9-3.5c-1.7-1.6-3-3.5-3.9-5.6c-1-2.3-1.5-4.9-1.4-7.4
		c0-4.7,1.9-9.1,5.3-12.3c1.7-1.5,3.6-2.7,5.7-3.6c4.4-1.7,9.3-1.7,13.8,0c2.1,0.8,4,2,5.7,3.6c3.4,3.2,5.3,7.6,5.3,12.3
		c0,1.6-0.2,3.2-0.7,4.7c-0.4,1.3-1,2.5-1.7,3.6c-0.6,1-1.4,1.9-2.3,2.6c-0.8,0.6-1.6,1.2-2.5,1.7v0.1h9.7L62.8,53z M42.2,23.6
		c-1.6,0-3.1,0.3-4.5,0.9C36.3,25.1,35,25.9,34,27c-1,1.1-1.8,2.4-2.4,3.7c-0.6,1.5-0.9,3.1-0.9,4.7c0,1.6,0.3,3.3,0.9,4.8
		c0.5,1.4,1.4,2.7,2.4,3.8c1,1.1,2.3,1.9,3.6,2.5c1.4,0.6,3,0.9,4.6,0.9c1.6,0,3.2-0.3,4.6-0.9c1.4-0.6,2.6-1.4,3.7-2.5
		c1-1.1,1.9-2.4,2.4-3.8c0.6-1.5,0.9-3.2,0.9-4.8c0-1.6-0.3-3.2-0.9-4.7c-0.5-1.4-1.4-2.7-2.4-3.7c-1-1.1-2.3-1.9-3.7-2.5
		C45.4,23.9,43.8,23.6,42.2,23.6z"/>
	<path class="st3" d="M142.5,19h6.6l6.4,24.5h0.1l7.6-24.5h6l7.5,24.5h0.1l6.6-24.5h6.1l-9.9,34h-5.8l-7.9-25.9H166L158.1,53h-5.6
		L142.5,19z"/>
	<path class="st3" d="M265.3,19h22.5v5.5h-16.5v8.4h15.6v5.5h-15.6v9.2h17.3V53h-23.4V19z"/>
	<path class="st3" d="M385.3,19h11.8c1.6,0,3.2,0.2,4.7,0.5c1.4,0.3,2.8,0.8,4.1,1.6c1.2,0.7,2.2,1.8,2.8,3c0.8,1.5,1.1,3.1,1.1,4.8
		c0.1,2.2-0.6,4.4-2,6.2c-1.5,1.7-3.6,2.8-5.8,3l9,15h-7.3l-7.9-14.4h-4.4V53h-6L385.3,19z M396,33.4c0.9,0,1.7,0,2.6-0.1
		c0.8-0.1,1.6-0.3,2.4-0.6c0.7-0.3,1.3-0.8,1.8-1.4c0.5-0.8,0.7-1.7,0.7-2.6c0-0.8-0.2-1.7-0.6-2.4c-0.4-0.6-1-1.1-1.6-1.4
		c-0.7-0.3-1.5-0.5-2.2-0.6c-0.8-0.1-1.6-0.1-2.4-0.1h-5.2v9.2L396,33.4z"/>
</g>
<g id="Layer_2">
	<rect x="379.5" y="10" class="st4" width="80" height="80"/>
</g>
<g id="Layer_3">
	<rect x="259.5" y="10" class="st4" width="80" height="80"/>
</g>
<g id="Layer_4">
	<rect x="140.5" y="10" class="st4" width="80" height="80"/>
</g>
<g id="Layer_5">
	<rect x="20.5" y="10" class="st4" width="80" height="80"/>
</g>
</svg>
